<?xml version="1.0" standalone="no"?>
<!DOCTYPE svg PUBLIC "-//W3C//DTD SVG 20010904//EN"
 "http://www.w3.org/TR/2001/REC-SVG-20010904/DTD/svg10.dtd">
<svg version="1.0" xmlns="http://www.w3.org/2000/svg"
 width="260.000000pt" height="260.000000pt" viewBox="0 0 260.000000 260.000000"
 preserveAspectRatio="xMidYMid meet">
<metadata>
Created by potrace 1.11, written by Peter Selinger 2001-2013
</metadata>
<g transform="translate(0.000000,260.000000) scale(0.100000,-0.100000)"
fill="#000000" stroke="none">
<path d="M805 2585 c-46 -25 -63 -44 -81 -91 -20 -52 -16 -122 11 -178 27 -56
108 -134 193 -184 51 -30 72 -49 70 -60 -5 -25 -33 -26 -136 -6 -89 17 -94 17
-126 0 -34 -18 -66 -63 -59 -83 9 -25 -19 -21 -122 18 -59 22 -108 39 -110 37
-4 -6 33 -142 55 -201 24 -62 69 -122 100 -132 19 -6 19 -7 -2 -36 -12 -16
-26 -29 -31 -29 -6 0 -64 29 -131 65 -115 62 -143 77 -302 169 -72 42 -82 41
-117 -5 -16 -23 -17 -31 -6 -75 29 -119 113 -265 215 -374 l62 -65 -58 -1
c-69 -2 -108 -24 -118 -68 -3 -17 -6 -33 -5 -36 1 -3 29 -104 62 -225 34 -121
79 -287 102 -370 23 -82 54 -196 70 -251 16 -56 29 -111 29 -121 0 -11 14 -32
31 -49 l30 -29 572 -1 c315 -1 573 -3 575 -4 1 -1 6 -3 11 -4 5 0 13 -4 17 -8
3 -4 -3 -6 -14 -3 -15 3 -20 -1 -19 -16 1 -12 5 -15 11 -9 15 15 24 12 36 -13
11 -21 10 -21 -4 -3 -9 11 -19 17 -22 13 -4 -4 -1 -14 6 -22 11 -13 11 -16 0
-13 -20 4 -24 -61 -5 -68 8 -4 13 -10 10 -14 -3 -4 5 -14 18 -22 18 -12 69
-14 269 -13 222 1 249 3 267 19 11 10 20 25 20 34 0 10 2 36 5 60 5 31 2 48
-9 58 -8 9 -15 21 -15 27 0 7 5 4 11 -7 9 -14 13 -15 19 -6 5 7 22 15 39 16
43 5 78 30 86 62 4 15 9 34 11 42 8 33 27 102 133 490 62 223 116 419 120 437
7 25 5 41 -10 70 -10 20 -19 50 -19 65 0 33 -24 59 -79 88 -78 39 -77 80 2
186 95 125 120 173 121 231 1 45 -3 55 -28 76 -37 32 -83 41 -140 26 -59 -15
-105 -61 -157 -161 -22 -44 -49 -88 -59 -98 -18 -18 -60 -44 -60 -37 0 2 23
54 50 115 28 61 50 122 50 134 -1 30 -32 97 -59 126 -21 22 -21 23 -5 52 25
41 63 54 167 54 99 1 116 10 103 59 -13 54 -91 64 -180 24 -31 -14 -56 -24
-56 -22 0 2 29 57 65 123 76 137 89 184 56 201 -17 10 -26 8 -45 -6 -30 -22
-83 -108 -98 -157 -12 -38 -28 -48 -28 -18 0 51 -67 85 -101 51 -25 -25 -25
-91 1 -189 26 -100 26 -100 -17 -96 -70 7 -150 -42 -190 -114 -15 -27 -27 -36
-52 -38 -73 -7 -77 33 -19 179 67 169 57 277 -32 336 -53 37 -129 24 -180 -28
-22 -24 -46 -77 -42 -92 2 -5 -9 0 -24 12 -30 23 -64 27 -97 10 -23 -12 -86
-79 -87 -91 0 -4 -23 -46 -52 -93 -98 -159 -163 -144 -183 41 -18 166 -59 260
-134 310 -51 33 -115 41 -156 19z m795 -482 c17 -34 29 -67 25 -72 -8 -13 -53
4 -81 30 l-21 19 21 44 c12 24 22 43 22 42 1 0 16 -29 34 -63z m62 -1917 c7 4
8 2 4 -5 -10 -15 -26 -4 -25 17 1 15 2 15 6 -1 2 -9 9 -14 15 -11z m345 2 c-3
-8 -6 -5 -6 6 -1 11 2 17 5 13 3 -3 4 -12 1 -19z m-244 -3 c-3 -9 -8 -14 -10
-11 -3 3 -2 9 2 15 9 16 15 13 8 -4z m362 5 c4 -6 -1 -7 -11 -3 -13 5 -15 3
-9 -7 5 -9 4 -11 -4 -6 -6 4 -9 12 -6 17 8 12 22 12 30 -1z m-444 -23 c-10 -9
-11 -8 -5 6 3 10 9 15 12 12 3 -3 0 -11 -7 -18z m286 16 c-4 -3 -1 -13 6 -22
11 -14 10 -14 -5 -2 -21 15 -23 31 -6 31 6 0 8 -3 5 -7z m75 -15 c-6 -6 -22
-13 -34 -15 -18 -2 -19 -1 -8 6 8 5 18 7 22 5 5 -3 11 2 14 11 4 9 9 13 12 10
3 -3 0 -11 -6 -17z m-232 8 c0 -2 -7 -9 -15 -16 -13 -11 -14 -10 -9 4 5 14 24
23 24 12z m270 -11 c5 3 11 1 14 -4 4 -5 -2 -8 -11 -7 -9 2 -18 8 -19 15 -1 6
0 7 3 1 2 -5 9 -8 13 -5z m-346 -10 c-4 -8 -11 -15 -16 -15 -6 0 -5 6 2 15 7
8 14 15 16 15 2 0 1 -7 -2 -15z m199 -2 c-5 -12 -3 -14 7 -8 8 5 11 4 6 -3 -4
-6 -13 -9 -22 -5 -11 4 -12 9 -3 19 15 19 20 18 12 -3z m234 3 c14 -13 11 -64
-3 -59 -7 2 -12 13 -11 23 1 10 5 16 10 13 5 -3 8 0 5 7 -6 20 -37 21 -48 2
-5 -10 -10 -12 -10 -6 0 26 38 39 57 20z m-302 -5 c3 -5 0 -13 -6 -17 -7 -4
-9 -3 -5 4 3 6 -2 13 -11 15 -16 4 -16 5 -1 6 9 0 19 -3 23 -8z m-104 -24
c-10 -9 -11 -8 -5 6 3 10 9 15 12 12 3 -3 0 -11 -7 -18z m154 -5 c-3 -3 -11 0
-18 7 -9 10 -8 11 6 5 10 -3 15 -9 12 -12z m140 0 c-3 -3 -11 0 -18 7 -9 10
-8 11 6 5 10 -3 15 -9 12 -12z m42 -14 c-3 -7 -5 -2 -5 12 0 14 2 19 5 13 2
-7 2 -19 0 -25z m-376 5 c13 -16 12 -17 -3 -4 -10 7 -18 15 -18 17 0 8 8 3 21
-13z m99 8 c0 -5 -7 -12 -16 -15 -14 -5 -15 -4 -4 9 14 17 20 19 20 6z m-175
-11 c3 -6 -1 -7 -9 -4 -18 7 -21 14 -7 14 6 0 13 -4 16 -10z m-35 -9 c0 -6 -4
-12 -8 -15 -5 -3 -9 1 -9 9 0 8 4 15 9 15 4 0 8 -4 8 -9z m96 -3 c5 -7 3 -8
-6 -3 -10 6 -12 4 -7 -8 4 -11 2 -14 -9 -10 -11 4 -12 9 -3 19 14 17 16 17 25
2z m357 -14 c-4 -11 -9 -12 -19 -3 -19 15 -18 20 3 12 12 -5 14 -3 8 7 -5 8
-4 11 3 6 6 -4 9 -13 5 -22z m-46 10 c-3 -3 -12 -4 -19 -1 -8 3 -5 6 6 6 11 1
17 -2 13 -5z m-286 -17 c-6 -8 -8 -17 -4 -20 3 -4 1 -7 -5 -7 -15 0 -15 13 0
28 16 16 23 15 9 -1z m67 0 c6 -5 12 -14 12 -20 0 -8 -4 -7 -9 2 -5 8 -17 16
-26 17 -9 1 -20 5 -23 8 -8 9 30 2 46 -7z m52 2 c0 -5 -4 -7 -10 -4 -5 3 -10
1 -10 -6 0 -7 -3 -10 -6 -6 -8 7 4 27 17 27 5 0 9 -5 9 -11z m60 1 c0 -5 -4
-10 -10 -10 -5 0 -10 5 -10 10 0 6 5 10 10 10 6 0 10 -4 10 -10z m171 -13
c-10 -9 -11 -8 -5 6 3 10 9 15 12 12 3 -3 0 -11 -7 -18z m79 13 c10 -6 11 -10
3 -10 -7 0 -13 -5 -13 -11 0 -5 5 -7 10 -4 15 9 12 -2 -6 -19 -11 -12 -20 -13
-34 -6 -13 7 -21 7 -25 0 -4 -6 -16 -8 -27 -4 -11 3 -18 2 -15 -2 3 -5 -48 -9
-113 -9 -100 0 -117 2 -112 15 5 13 3 13 -12 1 -14 -12 -19 -12 -29 -1 -9 10
-9 11 1 6 7 -4 19 -3 27 4 10 8 15 8 21 -1 5 -9 10 -7 16 7 8 17 8 17 4 -3 -3
-16 1 -21 15 -20 11 1 19 5 19 9 0 4 3 7 8 6 4 -1 18 4 32 11 l25 12 -24 -19
-23 -19 30 0 c23 0 29 4 25 16 -4 13 -3 13 5 2 5 -7 14 -11 20 -7 6 3 13 2 17
-4 3 -5 11 -10 17 -10 7 0 7 4 -1 13 -8 10 -7 14 4 14 8 0 12 -4 9 -9 -7 -11
3 -10 28 3 16 8 19 8 13 -1 -5 -8 -3 -11 6 -8 8 3 13 11 11 17 -2 9 3 9 17 1
16 -8 22 -6 31 9 7 14 6 21 -3 24 -6 3 -7 6 -2 6 6 0 17 -4 25 -9z m-155 -9
c3 -5 0 -13 -6 -17 -8 -5 -9 -3 -4 6 6 10 4 12 -9 7 -10 -4 -15 -3 -11 3 8 13
22 13 30 1z m-381 -13 c-3 -4 0 -8 6 -8 6 0 8 -4 5 -10 -3 -5 -1 -10 4 -10 6
0 11 6 11 13 0 6 5 4 11 -6 6 -10 8 -21 5 -24 -3 -4 -6 0 -6 8 0 10 -2 11 -8
2 -6 -9 -15 -4 -33 16 -22 25 -23 29 -8 28 10 -1 15 -5 13 -9z m143 -12 c-3
-7 -2 -17 3 -22 5 -5 -12 -9 -41 -10 -27 -1 -47 1 -44 4 3 3 -1 12 -8 21 -9
12 -7 11 13 -2 27 -19 44 -22 35 -7 -4 6 1 7 11 3 13 -5 15 -3 9 7 -5 9 -4 11
3 6 7 -4 12 -2 12 3 0 6 3 11 6 11 3 0 4 -6 1 -14z"/>
</g>
</svg>
