<svg width="265" height="227" viewBox="0 0 265 227" fill="none" xmlns="http://www.w3.org/2000/svg">
<path d="M164.93 47.0549C161.491 41.9473 157.946 36.738 156.193 31.0428C154.44 25.3476 154.6 18.9292 158.238 13.8894C161.876 8.84963 169.432 5.67433 176.018 7.51623C184.131 9.77623 187.57 18.3077 186.468 25.5171C185.366 32.7265 180.997 39.2127 178.288 46.0944C177.399 48.3431 176.801 51.1116 178.687 52.897C180.692 54.7502 184.277 54.253 187.012 53.349C195.006 50.6257 201.605 44.9644 210.09 43.5745C213.21 43.066 216.928 43.3598 218.84 45.5294C219.69 46.6255 220.168 47.9024 220.261 49.2132C221.018 56.4904 216.888 63.5077 209.599 67.361C204.606 69.9148 198.578 70.7623 193.718 73.4856C192.629 74.0958 191.514 74.9207 191.314 76.0281C191.115 77.1355 192.005 78.1864 192.908 79.0113C195.789 81.6668 199.56 83.52 202.375 86.1981C205.204 88.8875 206.916 93.0007 204.699 96.0856C202.481 99.1705 197.396 99.7129 193.266 98.9106C189.137 98.1083 185.273 96.3003 181.103 95.8257C176.934 95.3511 171.848 96.8314 170.706 100.3C169.458 104.109 173.601 107.713 177.903 109.205C182.205 110.696 187.092 111.058 190.903 113.284C196.865 116.798 198.352 123.748 194.222 128.822C192.177 131.33 189.03 133.014 185.485 133.489C181.674 133.997 177.837 133.059 174.159 132.065C155.011 126.878 136.621 119.872 119.319 111.171C116.916 109.962 114.526 108.685 112.746 106.832C107.78 101.555 109.945 93.8595 112.335 87.4185C113.49 84.3223 115.057 80.8306 118.655 79.7232C123.449 78.2429 128.083 81.9041 132.837 83.4635C136.833 84.7517 141.282 84.5709 145.119 82.955C147.35 82.0623 149.169 80.5481 150.258 78.661C152.077 75.1354 150.178 70.9544 147.27 67.9938C144.362 65.0332 140.511 62.841 137.511 59.9482C133.899 56.4678 131.575 51.6992 132.637 47.134C133.7 42.5575 138.838 38.6138 144.269 39.2127C152.09 40.0602 155.888 48.7386 163.576 50.2302C166.417 49.733 164.93 47.0549 164.93 47.0549Z" fill="#4C7378"/>
<path d="M221.31 29.2574C221.735 24.7826 221.469 14.7369 213.834 14.3527C205.721 13.9459 208.098 24.3645 209.041 28.1387C210.342 33.2802 212.374 38.4104 212.918 43.6197C211.922 45.3599 211.152 47.1792 210.621 49.0663C210.502 49.8347 211.152 50.5466 212.055 50.637C212.214 50.6596 212.387 50.6483 212.546 50.6257C212.467 50.976 212.374 51.3037 212.268 51.6992C211.922 52.8292 213.901 53.0552 214.312 52.0269C214.95 50.3771 215.361 48.6821 215.547 46.9532C216.689 44.6819 217.685 42.3654 218.535 40.0037C219.956 36.5346 220.885 32.9186 221.31 29.2574Z" fill="#66A896"/>
<path d="M249.301 31.8903C245.941 26.8505 237.895 28.1726 232.65 29.9354C227.405 31.6982 221.509 35.0317 219.677 39.7551C218.07 41.3936 216.968 43.3598 216.477 45.4503C216.118 46.9645 219 47.8798 219.597 46.3317C220.845 43.179 223.235 40.3314 226.834 38.8511C230.645 37.3256 234.881 37.8115 238.917 38.0827C241.772 38.2635 245.981 38.8963 248.517 37.3482C250.615 36.1052 250.443 33.6079 249.301 31.8903Z" fill="#4C7378"/>
<path d="M236.421 3.85505C232.836 3.60645 229.675 7.84395 228.042 9.97965C225.758 13.0533 223.966 16.3528 222.691 19.8219C221.138 23.7995 220.049 27.8675 218.787 31.9016C217.486 36.06 215.64 40.0715 214.18 44.1508C213.569 45.2243 212.998 46.2978 212.507 47.3939C212.015 48.5013 213.728 49.7104 214.671 48.6143C218.07 44.7045 220.513 40.1958 223.222 35.9244C226.077 31.4157 228.919 26.9183 231.773 22.4209C233.234 20.1609 245.437 4.47655 236.421 3.85505Z" fill="#57848A"/>
<path d="M226.741 63.2817C230.95 57.2701 226.17 49.4166 219.85 44.9079C216.703 42.6818 213.051 40.8286 208.988 40.3314C200.715 39.3822 192.948 44.5463 188.791 50.7048C184.635 56.8633 183.082 64.0388 180.333 70.7623C174.942 83.9042 165.01 95.2607 156.937 107.363C148.863 119.465 142.49 133.353 145.278 147.037C145.624 148.71 146.673 150.778 148.678 150.676C149.673 150.529 150.576 150.088 151.24 149.433C154.6 146.777 157.986 144.111 161.292 141.387C178.235 127.466 193.558 112.211 207.089 95.8031C216.503 84.4127 226.741 63.2817 226.741 63.2817Z" fill="#FC9658"/>
<path d="M148.598 149.094C158.836 140.122 162.646 127.172 158.61 115.149C157.07 110.572 154.48 106.188 153.391 101.543C152.316 96.8992 153.059 91.7012 157.282 88.6615C161.518 85.6218 169.79 86.2094 172.326 90.5373C174.106 93.5883 173.123 97.9275 176.841 99.5773C179.244 100.628 182.205 99.6903 183.732 98.0518C185.259 96.4133 185.671 94.2663 186.056 92.2097L189.907 71.0787C190.385 68.5023 190.889 65.8355 192.629 63.6885C194.368 61.5415 197.688 60.0047 200.928 60.7166C209.957 62.6941 205.628 76.1185 214.193 79.2825C220.155 81.486 225.639 76.3784 228.241 71.8019C231.654 65.8468 234.721 59.3267 241.387 55.5412C248.053 51.7557 259.778 52.5693 263.11 58.8634C265.341 63.0444 263.044 67.6435 260.428 71.4516C257.454 75.8021 254.068 79.9266 250.31 83.8138C246.619 87.6332 242.542 93.1476 246.791 96.967C249.288 99.227 253.669 99.5773 256.299 101.724C257.746 103.024 258.649 104.707 258.848 106.482C260.202 115.194 248.756 122.957 238.014 120.595C231.614 119.183 225.373 114.889 219.133 116.279C213.011 117.635 211.059 123.895 212.414 128.98C213.768 134.065 217.366 138.732 218.641 143.828C219.916 148.924 217.685 155.151 211.444 156.303C203.212 157.817 194.302 149.557 186.707 152.371C184.383 153.23 182.856 154.981 181.449 156.676C177.425 161.513 173.548 166.439 169.83 171.445L148.598 149.094Z" fill="#689399"/>
<path d="M100.185 43.699C93.4795 40.4107 86.6677 37.0772 81.2236 32.399C75.7795 27.7208 71.7429 21.4493 71.9421 14.8614C72.1412 8.27347 77.3463 1.61778 84.915 0.261776C94.2364 -1.41062 103.133 5.18857 106.824 12.6692C110.516 20.1498 110.529 28.5005 112.414 36.4444C113.025 39.0434 114.273 42.004 117.208 42.7837C120.408 43.6199 123.502 41.4842 125.533 39.2694C131.456 32.7945 134.111 24.2291 141.388 18.8616C144.07 16.8841 147.868 15.4038 151.121 16.6016C152.661 17.257 153.962 18.2514 154.905 19.4831C160.429 26.1501 161.08 34.8963 156.565 42.0944C153.431 46.9308 148.146 50.6033 145.238 55.5414C144.588 56.6601 144.057 57.9822 144.628 59.1235C145.199 60.2648 146.712 60.875 148.12 61.2479C152.635 62.4344 157.508 62.423 161.996 63.6886C166.484 64.9429 170.866 68.1069 170.733 72.1297C170.6 76.1525 166.072 79.1131 161.558 80.2996C157.043 81.4861 152.143 81.5652 147.788 83.1133C143.419 84.6614 139.542 88.4921 140.711 92.368C142.012 96.6394 148.372 98.1536 153.498 97.5434C158.623 96.9332 163.576 94.967 168.741 95.3173C176.801 95.8823 182.79 101.905 182.126 108.753C181.794 112.143 179.855 115.273 176.735 117.42C173.389 119.714 169.073 120.641 164.864 121.432C142.981 125.534 120.62 127.522 98.2066 127.342C95.0995 127.342 91.9127 127.229 89.018 126.279C80.7589 123.556 77.7845 115.092 75.8725 107.736C74.943 104.199 74.1728 100.075 76.9082 97.2948C80.5597 93.5884 87.4379 94.9105 93.0546 94.1647C97.7551 93.5093 101.938 91.2154 104.567 87.8254C106.147 85.9044 106.904 83.5766 106.705 81.2375C106.147 76.9661 101.566 73.8247 96.8257 72.3896C92.0853 70.9545 86.9333 70.6156 82.1531 69.2596C76.3638 67.6097 70.9595 64.1068 69.0208 59.1912C67.0822 54.2758 69.4192 48.0156 75.0492 46.0042C83.1623 43.1114 92.5235 49.688 100.915 47.4506C103.372 45.5861 100.185 43.699 100.185 43.699Z" fill="#66A896"/>
<path d="M91.9924 120.358C44.4692 113.002 4.79348 67.1463 4.79348 67.1463L0 66.2762C0 66.2762 7.47571 111.352 75.7662 130.234C157.813 152.97 187.583 105.465 187.583 105.465L192.204 98.2778C185.525 107.499 161.173 131.048 91.9924 120.358Z" fill="#E69E19"/>
<path d="M206.067 77.9378C206.784 75.8134 205.589 73.5534 203.238 72.5929C200.211 71.5194 198.219 74.367 197.9 74.8077C196.373 76.853 189.177 90.526 185.764 92.1984C172.725 98.5829 147.137 108.041 94.4489 96.8427C66.5511 90.9215 9.77287 61.0556 9.77287 61.0556L4.79349 67.135C4.79349 67.135 44.4294 112.99 91.9393 120.347C174.292 133.071 193.134 97.2834 194.275 94.933C194.329 94.8426 205.814 78.6497 206.067 77.9378Z" fill="#FDB62F"/>
<path d="M0 66.2762C0 66.2762 4.50136 67.2367 4.79348 67.135C5.08561 67.0333 9.7463 61.0556 9.7463 61.0556C9.7463 61.0556 6.20099 59.4397 4.46152 60.5471C1.99175 62.163 0 66.2762 0 66.2762Z" fill="#6B4D3A"/>
<path d="M125.294 79.2147C117.434 71.8358 101.619 67.7791 91.8463 71.0109C82.0867 74.2314 85.393 73.6777 82.0734 74.2314C78.7538 74.7851 72.8317 73.2596 66.7635 76.6496C59.8986 80.469 46.7796 91.5204 51.8785 107.261C56.2471 120.731 73.2168 133.116 95.2455 131.409C117.274 129.703 129.026 119.443 132.584 110.324C136.807 99.5999 132.876 86.345 125.294 79.2147Z" fill="#FF5856"/>
<path d="M89.3367 83.3618C89.3367 83.3618 91.7932 65.0784 78.5812 59.9143C65.3693 54.7502 43.9115 47.6312 44.8144 48.7725C45.7173 49.9251 49.1299 70.1521 57.8272 76.1298C71.0126 85.1811 89.3367 83.3618 89.3367 83.3618Z" fill="#1F6771"/>
<path d="M93.7053 81.8024C93.7053 81.8024 92.5235 72.7511 92.6297 67.4175C92.8289 56.4565 93.6256 51.089 93.6256 51.089L82.6046 51.8574C82.6046 51.8574 82.9365 64.649 83.7731 69.4063C85.247 77.8587 88.0089 82.9776 88.0089 82.9776C88.0089 82.9776 89.9873 84.4805 91.8463 83.7686C92.8687 83.4748 93.5858 82.7064 93.7053 81.8024Z" fill="#6B4D3A"/>
<path d="M88.432 53.7258C91.4759 53.4183 93.8012 52.1491 93.6257 50.8911C93.4501 49.6331 90.8403 48.8626 87.7964 49.1701C84.7525 49.4777 82.4272 50.7468 82.6027 52.0049C82.7782 53.2629 85.388 54.0334 88.432 53.7258Z" fill="#8A634B"/>
<path d="M225.944 208.227H47.3373C41.8666 208.215 37.4316 204.441 37.4184 199.786L10.7023 116.719C10.7156 112.064 15.1506 108.29 20.6213 108.278H252.634C258.104 108.29 262.539 112.064 262.553 116.719L235.85 199.786C235.837 204.441 231.415 208.215 225.944 208.227Z" fill="#DEC7B2"/>
<path d="M248.517 156.586C246.858 157.704 244.853 158.394 242.755 158.586C237.789 159.072 234.403 156.88 230.631 154.427C226.688 151.851 222.372 149.139 217.194 148.947C211.896 148.755 207.222 151.354 202.229 152.427C200.211 152.868 197.701 153.218 195.709 152.518C194.899 152.19 194.169 151.738 193.558 151.196C193.97 151.489 193.094 150.167 192.934 150.054C192.775 149.941 192.828 149.828 192.775 149.704C192.589 149.116 192.43 149.862 192.244 149.286C191.46 146.563 190.451 143.896 189.256 141.297C187.928 138.664 186.322 135.613 183.108 134.37C180.081 133.206 177.014 134.415 174.557 136.065C170.122 139.037 166.059 142.393 162.421 146.077C159.406 149.083 154.653 154.62 149.634 154.925C147.549 155.06 145.504 154.348 144.15 152.992C144.15 152.992 143.871 152.574 143.592 152.179L143.526 151.128C143.366 149.015 143.233 146.879 142.955 144.777C142.397 140.596 141.521 136.268 139.409 132.449C136.661 127.466 131.469 125.07 125.454 127.816C120.461 130.099 117.221 135.556 114.353 139.523C111.153 143.93 108.152 148.438 104.554 152.631C101.778 155.851 97.5427 160.88 92.3641 160.801C87.013 160.71 81.6087 156.043 77.7712 153.32C68.171 146.427 60.1774 135.545 46.5406 134.573C36.0109 133.828 27.0878 138.28 19.4528 143.964L25.8529 163.784C31.8149 160.868 38.2283 158.88 45.2924 159.445C57.7741 160.45 65.4888 171.897 73.7877 178.609C78.1032 182.09 82.9365 186.26 88.5533 188.135C94.9534 190.282 100.398 188.248 105.005 184.192C109.321 180.248 113.158 175.931 116.424 171.31C119.558 167.038 122.28 162.292 126.025 158.382C127.286 157.026 128.813 155.863 130.898 155.704C130.964 155.704 131.429 155.704 131.907 155.761C131.96 157.716 131.96 159.693 132.212 161.58C132.624 165.603 133.7 169.547 135.413 173.321C137.749 178.078 141.653 182.892 147.894 184.135C153.776 185.31 159.194 181.118 162.952 177.807C167.134 174.135 170.653 169.976 174.809 166.27C176.549 164.586 178.607 163.162 180.904 162.066C181.156 161.965 181.422 161.908 181.701 161.908C181.767 162.066 181.834 162.236 181.9 162.394C184.303 170.677 188.3 184.395 201.499 182.96C207.142 182.35 212.281 179.31 218.083 179.683C223.501 180.033 227.458 184.339 231.68 186.836C233.925 188.214 236.487 189.175 239.196 189.65L250.177 155.478C249.766 155.67 248.889 156.337 248.517 156.586ZM181.887 162.315C182.205 163.208 182.351 163.908 181.887 162.315V162.315Z" fill="#EBDBCD"/>
<g opacity="0.75">
<path opacity="0.75" d="M213.529 226.002H168.768C164.28 226.002 160.562 223.052 160.216 219.244L152.754 133.749C152.674 132.811 153.498 131.997 154.6 131.918C154.653 131.918 154.706 131.918 154.759 131.918H227.564C228.666 131.918 229.569 132.675 229.569 133.613C229.569 133.658 229.569 133.703 229.569 133.749L222.094 219.244C221.748 223.052 218.017 226.002 213.529 226.002Z" fill="#E0E1FF"/>
<path opacity="0.75" d="M219.292 216.566L224.298 156.868H157.999L163.005 216.566C163.324 220.024 166.71 222.691 170.786 222.691H211.524C215.587 222.691 218.986 220.024 219.292 216.566Z" fill="#AAACE3"/>
</g>
</svg>
